<?xml version="1.0" standalone="no"?>
<!DOCTYPE svg PUBLIC "-//W3C//DTD SVG 20010904//EN"
 "http://www.w3.org/TR/2001/REC-SVG-20010904/DTD/svg10.dtd">
<svg version="1.0" xmlns="http://www.w3.org/2000/svg"
 width="2000.000000pt" height="2000.000000pt" viewBox="0 0 2000.000000 2000.000000"
 preserveAspectRatio="xMidYMid meet">
<metadata>
Created by potrace 1.11, written by Peter Selinger 2001-2013
</metadata>
<g transform="translate(0.000000,2000.000000) scale(0.100000,-0.100000)"
fill="#000000" stroke="none">
<path d="M2655 19994 c-16 -2 -73 -9 -125 -15 -478 -53 -977 -254 -1375 -554
-633 -477 -1032 -1166 -1137 -1960 -19 -148 -19 -14782 0 -14930 105 -794 504
-1483 1137 -1960 399 -300 868 -490 1380 -557 148 -19 14782 -19 14930 0 512
67 981 257 1380 557 633 477 1032 1166 1137 1960 19 148 19 14782 0 14930
-105 794 -504 1483 -1137 1960 -378 285 -803 463 -1304 548 l-126 21 -7365 2
c-4051 0 -7378 -1 -7395 -2z m8230 -3394 c1395 -81 2455 -421 3210 -1028 97
-78 323 -300 410 -402 356 -419 579 -929 659 -1505 68 -487 25 -1067 -111
-1515 -158 -521 -400 -927 -778 -1305 -213 -213 -470 -410 -703 -537 -40 -22
-71 -42 -70 -44 2 -2 51 -20 108 -39 558 -193 1062 -516 1423 -910 473 -518
738 -1131 824 -1908 23 -210 22 -648 -1 -850 -102 -888 -460 -1558 -1119
-2095 -51 -42 -94 -69 -100 -65 -30 18 -1847 1447 -1847 1452 0 4 32 33 71 65
141 117 278 295 369 481 120 244 172 494 172 825 1 409 -86 726 -280 1020 -81
124 -278 317 -416 409 -373 248 -822 384 -1506 458 -135 14 -333 17 -1532 20
l-1378 4 0 955 0 954 1018 0 c1039 0 1176 4 1472 41 1060 132 1705 578 1889
1307 42 163 54 293 48 522 -3 166 -9 240 -26 323 -106 528 -412 905 -934 1152
-276 130 -632 224 -1027 269 -273 32 -466 36 -1576 36 l-1120 0 -1175 921
c-646 507 -1196 939 -1223 960 l-49 39 2564 0 c1567 0 2630 -4 2734 -10z
m-5527 -2094 l1222 -958 0 -4119 0 -4119 1990 0 1990 0 1099 -863 c605 -474
1098 -863 1096 -865 -5 -6 -308 -62 -465 -86 -358 -55 -742 -90 -1180 -106
-168 -6 -1579 -10 -3632 -10 l-3358 0 0 6046 c0 3325 4 6044 8 6042 5 -1 559
-434 1230 -962z"/>
</g>
</svg>
