<svg width="290" height="360" viewBox="0 0 290 360" fill="none" xmlns="http://www.w3.org/2000/svg">
<g clip-path="url(#clip0)">
<path d="M0 0H285C287.761 0 290 2.23858 290 5V355C290 357.761 287.761 360 285 360H0V0Z" fill="#3D3FA0" fill-opacity="0.1"/>
<g style="mix-blend-mode:luminosity" opacity="0.5">
<path fill-rule="evenodd" clip-rule="evenodd" d="M40.9119 210.407C40.9119 220.266 34.9349 228.258 27.5617 228.258C20.1885 228.258 14.2114 220.266 14.2114 210.407C14.2114 200.547 20.1885 192.555 27.5617 192.555C34.9349 192.555 40.9119 200.547 40.9119 210.407Z" fill="#CCE3FF"/>
<path d="M27.6618 304.171V211.314" stroke="#DCEEFF" stroke-width="9"/>
<path fill-rule="evenodd" clip-rule="evenodd" d="M13.284 236.631C19.5883 242.953 20.866 251.923 16.1378 256.665C11.4095 261.407 2.46583 260.125 -3.83871 253.803C-10.1429 247.48 -11.4204 238.511 -6.69245 233.769C-1.96389 229.027 6.9795 230.308 13.284 236.631Z" fill="#CCE3FF"/>
<path fill-rule="evenodd" clip-rule="evenodd" d="M58.2986 249.621C63.3823 254.719 62.0086 264.363 55.2303 271.161C48.4522 277.959 38.8362 279.337 33.7524 274.238" fill="#CCE3FF"/>
<path d="M51.4496 258.602L28.0566 282.13" stroke="#DCEEFF" stroke-width="9"/>
<path d="M44.6902 236.102L27.5947 253.046" stroke="#DCEEFF" stroke-width="9"/>
<path d="M9.84424 273.294L27.7037 291.407" stroke="#DCEEFF" stroke-width="9"/>
<path d="M3.68799 244.301L27.5618 268.529" stroke="#DCEEFF" stroke-width="9"/>
<path fill-rule="evenodd" clip-rule="evenodd" d="M34.8204 336.061H20.5028C9.50573 336.061 0.508301 327.038 0.508301 316.009V297.14H54.8149V316.009C54.8149 327.038 45.8175 336.061 34.8204 336.061Z" fill="#ECF6FF"/>
<path d="M54.8149 307.627H0.508301" stroke="#DCEEFF" stroke-width="9"/>
<path d="M54.8149 318.147H0.508301" stroke="#DCEEFF" stroke-width="9"/>
</g>
<g style="mix-blend-mode:luminosity" opacity="0.5">
<path fill-rule="evenodd" clip-rule="evenodd" d="M155.637 333.55H279.321V67.7432H155.637V333.55Z" fill="#DCEEFF"/>
<path fill-rule="evenodd" clip-rule="evenodd" d="M170.338 333.55H268.736V79.4698H170.338V333.55Z" fill="#CCE3FF"/>
<path fill-rule="evenodd" clip-rule="evenodd" d="M183.275 235.166H255.799V92.3693H183.275V235.166Z" fill="#DCEEFF"/>
<path fill-rule="evenodd" clip-rule="evenodd" d="M183.275 322.018H255.799V277.62H183.275V322.018Z" fill="#DCEEFF"/>
<path fill-rule="evenodd" clip-rule="evenodd" d="M183.275 269.452H255.799V243.082H183.275V269.452Z" fill="#DCEEFF"/>
<path d="M177.328 196.066H190.625" stroke="#B6D4FF" stroke-width="9"/>
<path fill-rule="evenodd" clip-rule="evenodd" d="M181.084 196.066C181.084 198.134 179.402 199.811 177.328 199.811C175.254 199.811 173.572 198.134 173.572 196.066C173.572 193.998 175.254 192.321 177.328 192.321C179.402 192.321 181.084 193.998 181.084 196.066Z" fill="#B6D4FF"/>
<path fill-rule="evenodd" clip-rule="evenodd" d="M181.084 209.262C181.084 211.33 179.402 213.006 177.328 213.006C175.254 213.006 173.572 211.33 173.572 209.262C173.572 207.193 175.254 205.517 177.328 205.517C179.402 205.517 181.084 207.193 181.084 209.262Z" fill="#B6D4FF"/>
<path fill-rule="evenodd" clip-rule="evenodd" d="M279.32 333.55H283.338V67.7432H279.32V333.55Z" fill="#B6D4FF"/>
<path fill-rule="evenodd" clip-rule="evenodd" d="M166.32 333.55H170.338V79.4698H166.32V333.55Z" fill="#B6D4FF"/>
</g>
<g clip-path="url(#clip1)">
<path d="M206.061 218.754H235.75C235.75 218.754 245.601 241.764 233.788 275.61L209.939 284.395L199.954 229.769L206.061 218.754Z" fill="#747378"/>
<path d="M139.686 251.619L159.968 231.017L152.256 261.028L150.652 263.838L139.686 251.619Z" fill="url(#paint0_radial)"/>
<path d="M206.061 214.429C206.061 214.429 205.928 219.156 210.207 225.978C214.353 250.371 213.238 258.487 213.238 258.487L212.614 275.789H155.243C155.243 275.789 151.231 268.698 151.231 259.245C150.83 255.32 156.313 233.559 160.682 230.348C165.095 227.138 163.089 226.246 163.089 226.246L206.061 214.429Z" fill="url(#paint1_radial)"/>
<path d="M142.36 185.8C140.488 191.419 140.399 202.656 146.015 208.989L150.964 208.052C155.243 199.49 153.103 190.126 148.735 184.552L142.36 185.8Z" fill="#2B2C76"/>
<path d="M200.89 221.341C205.838 217.06 209.627 211.441 211.633 205.02C212.659 201.675 213.238 198.108 213.238 194.362C213.238 190.527 212.614 186.871 211.5 183.392C206.953 169.256 193.758 159 178.245 159C162.687 159 149.537 169.256 144.946 183.392C143.831 186.826 143.207 190.527 143.207 194.362C143.207 198.063 143.787 201.631 144.812 205.02C146.818 211.397 150.518 216.971 155.377 221.207C161.484 226.514 169.463 229.769 178.2 229.769C186.848 229.724 194.783 226.558 200.89 221.341Z" fill="url(#paint2_radial)"/>
<path d="M145.347 204.262C147.71 208.543 153.906 216.346 168.973 215.455C188.543 214.34 202.183 205.51 206.062 200.516C206.062 200.516 201.782 170.639 166.165 173.314C155.6 174.251 149.627 177.729 146.328 181.965C142.806 190.215 144.545 202.835 145.347 204.262Z" fill="white"/>
<path d="M155.421 207.562C156.224 207.517 158.319 207.428 158.319 207.428C157.338 205.822 155.912 197.528 157.561 193.559C157.561 193.559 156.714 193.604 154.663 193.693C153.237 197.038 154.218 204.886 155.421 207.562Z" fill="#2B2C76"/>
<path d="M175.347 206.536C176.15 206.491 178.245 206.402 178.245 206.402C177.264 204.797 175.838 196.503 177.487 192.534C177.487 192.534 176.64 192.578 174.59 192.668C173.163 196.012 174.144 203.86 175.347 206.536Z" fill="#2B2C76"/>
<path d="M207.711 180.628C205.838 186.246 205.749 197.484 211.366 203.816L216.314 202.879C220.594 194.318 218.454 184.953 214.085 179.379L207.711 180.628Z" fill="#2B2C76"/>
<path d="M203.966 245.109C203.966 245.109 198.082 237.528 203.966 228.922C209.449 220.939 217.473 228.342 217.473 228.342L237.132 251.798L234.858 254.473L214.308 253.046L203.966 245.109Z" fill="url(#paint3_radial)"/>
<path d="M203.253 252.868C203.253 252.868 220.594 251.263 223.536 250.951C226.433 250.638 230.846 249.613 240.118 252.69C240.698 261.251 236.374 266.915 230.178 270.794C223.981 274.674 212.926 276.725 207.443 277.127C211.321 269.457 210.207 262.768 210.207 262.768L203.253 252.868Z" fill="#2B2C76"/>
<path d="M120.785 266.157C120.785 266.157 130.726 258.933 139.419 250.549C143.297 250.549 151.677 255.41 151.677 264.863C144.902 271.864 136.61 274.094 136.61 274.094L127.293 268.029L120.785 266.157Z" fill="#2B2C76"/>
<path d="M102.775 273.381C102.775 273.381 105.45 264.64 119.715 264.863C133.98 265.086 136.654 274.094 136.654 274.094L117.753 276.324L102.775 273.381Z" fill="#3F439B"/>
<path d="M123.905 271.329C123.905 271.329 125.51 267.896 126.892 268.208C128.274 268.52 131.171 271.731 131.171 271.731H123.905V271.329Z" fill="#1B1852"/>
<path d="M111.067 268.921C111.067 268.921 109.685 267.271 108.392 267.271C107.099 267.271 104.157 271.731 104.157 271.731H108.793L111.067 268.921Z" fill="#1B1852"/>
<path d="M115.436 270.794C115.436 270.794 114.455 267.138 113.207 267.004C111.959 266.915 108.526 271.731 108.526 271.731H115.124L115.436 270.794Z" fill="#1B1852"/>
<path d="M122.077 271.374C122.077 271.374 120.205 267.583 119.135 267.583C118.065 267.628 114.41 271.998 114.41 271.998L122.3 271.82L122.077 271.374Z" fill="#1B1852"/>
<path d="M168.081 275.833L163.668 271.017C163.668 271.017 101.661 271.151 101.795 271.017C101.928 270.884 100.814 276.77 100.814 276.77L168.081 275.833Z" fill="#EEEEF0"/>
<path d="M177.377 250.818C177.547 246.29 174.553 242.502 170.691 242.357C166.828 242.212 163.56 245.766 163.39 250.294C163.22 254.823 166.214 258.611 170.077 258.756C173.939 258.9 177.208 255.347 177.377 250.818Z" fill="#00A86E" stroke="white" stroke-miterlimit="10"/>
<path d="M192.643 257.193C189.211 256.48 184.619 258.174 182.435 258.353C185.868 251.619 197.235 252.11 199.642 253.091C196.878 253.626 194.426 255.142 192.643 257.193Z" fill="#1B1852"/>
<path d="M214.531 264.997C214.62 268.252 213.416 271.24 211.41 273.514C209.182 276.012 206.017 277.617 202.406 277.706C201.425 277.751 200.444 277.617 199.508 277.439L199.063 276.012L195.229 274.139C195.229 274.139 194.649 274.272 193.713 274.495C193.49 274.272 193.267 274.05 193.045 273.827C194.56 273.381 195.496 272.979 195.496 272.979L195.051 270.883L190.816 268.386C190.816 268.386 190.548 268.431 190.058 268.475C190.058 268.431 190.013 268.386 190.013 268.297C192.153 268.386 193.669 268.208 193.669 268.208L193.847 266.067L190.504 262.455C190.504 262.455 190.325 262.411 189.969 262.366C190.415 260.449 191.351 258.71 192.554 257.283C194.337 255.187 196.745 253.715 199.553 253.135C200.266 253.002 200.979 252.913 201.737 252.868C208.691 252.734 214.397 258.13 214.531 264.997Z" fill="#3F439B"/>
<path d="M194.426 241.095L179.983 271.151L180.117 275.655L183.995 273.069L198.438 243.013C198.438 243.013 198.082 242.121 196.7 241.452C195.363 240.783 194.426 241.095 194.426 241.095Z" fill="#212121"/>
<path d="M193.892 265.978L193.713 268.119C193.713 268.119 192.198 268.252 190.058 268.163C187.829 268.074 186.67 267.807 184.129 266.692C181.945 265.711 180.964 261.92 181.945 259.468C183.55 260.716 183.728 261.251 185.868 261.876C188.141 262.5 189.033 262.143 190.014 262.277C190.37 262.322 190.548 262.366 190.548 262.366L193.892 265.978Z" fill="#1B1852"/>
<path d="M195.14 270.839L195.541 272.935C195.541 272.935 194.56 273.336 193.089 273.782C189.389 273.782 187.116 273.425 184.308 271.597C183.282 271.062 182.346 269.412 181.588 268.386C182.079 268.475 183.906 268.342 185.422 268.163C188.542 267.806 190.905 268.297 190.905 268.297L195.14 270.839Z" fill="#1B1852"/>
<path d="M199.419 275.699L199.865 277.126L199.954 277.483C189.3 281.675 190.682 275.477 193.089 273.782C193.045 273.827 193.134 273.827 193.758 274.451C194.649 274.228 195.585 273.827 195.585 273.827L199.419 275.699Z" fill="#1B1852"/>
<path d="M147.264 194.362H45.0923V258.308H147.264V194.362Z" fill="#747378"/>
<path d="M255.542 288.631V360.069L220.816 366L215.066 359.356L217.741 287.026L225.854 286.491L255.542 288.631Z" fill="#D9DADE"/>
<path d="M254.339 288.765C257.504 288.765 260.044 286.223 260.044 283.057C260.044 279.891 257.504 277.349 254.339 277.349L218.989 275.61L215.066 280.337L218.989 286.982L254.339 288.765Z" fill="#9C9BA0"/>
<path d="M80.1304 233.648C80.1304 233.648 80.2642 273.247 73.7559 275.61C84.2315 277.082 103.667 278.866 107.546 276.324C101.438 270.883 100.77 233.648 100.77 233.648C89.1351 233.648 80.1304 233.648 80.1304 233.648Z" fill="#89878B"/>
<path d="M220.817 285.777H33.1904V366H220.817V285.777Z" fill="#C3C4CB"/>
<path d="M220.326 287.026H33.3686C30.9614 287.026 29 285.064 29 282.656V280.025C29 277.617 30.9614 275.655 33.3686 275.655H220.282C222.689 275.655 224.65 277.617 224.65 280.025V282.656C224.695 285.064 222.733 287.026 220.326 287.026Z" fill="#89878B"/>
</g>
<g style="mix-blend-mode:luminosity" opacity="0.5">
<path fill-rule="evenodd" clip-rule="evenodd" d="M89.7937 84.2834C89.7937 98.7992 78.008 110.567 63.4695 110.567C48.9313 110.567 37.146 98.7992 37.146 84.2834C37.146 69.7672 48.9313 58 63.4695 58C78.008 58 89.7937 69.7672 89.7937 84.2834Z" fill="#CCE3FF"/>
<path fill-rule="evenodd" clip-rule="evenodd" d="M84.632 84.2834C84.632 98.7992 72.846 110.567 58.3078 110.567C43.7697 110.567 31.9844 98.7992 31.9844 84.2834C31.9844 69.7672 43.7697 58 58.3078 58C72.846 58 84.632 69.7672 84.632 84.2834Z" fill="#DCEEFF"/>
<path fill-rule="evenodd" clip-rule="evenodd" d="M78.2561 84.2815C78.2561 94.5411 70.4899 102.987 60.511 104.081C59.7867 104.161 59.0542 104.201 58.3102 104.201C47.2908 104.201 38.3599 95.2839 38.3599 84.2815C38.3599 73.2831 47.2908 64.3658 58.3102 64.3658C59.0542 64.3658 59.7867 64.406 60.511 64.4858C70.4899 65.5804 78.2561 74.026 78.2561 84.2815Z" fill="#CCE3FF"/>
<path fill-rule="evenodd" clip-rule="evenodd" d="M78.256 84.2815C78.256 94.5411 70.4897 102.987 60.5108 104.081C50.5275 102.987 42.7612 94.5411 42.7612 84.2815C42.7612 74.026 50.5275 65.5804 60.5108 64.4858C70.4897 65.5804 78.256 74.026 78.256 84.2815Z" fill="#ECF6FF"/>
<path d="M59.1733 73.2073L65.6368 87.2826" stroke="#CCE3FF" stroke-width="3"/>
<path d="M66.2526 81.3818L52.0942 96.7478" stroke="#CCE3FF" stroke-width="3"/>
</g>
<line x1="0.5" y1="-2.18557e-08" x2="0.500016" y2="360" stroke="#3D3FA0" stroke-opacity="0.15"/>
</g>
<defs>
<radialGradient id="paint0_radial" cx="0" cy="0" r="1" gradientUnits="userSpaceOnUse" gradientTransform="translate(149.841 247.441) scale(13.6323 13.6371)">
<stop stop-color="#3F439B"/>
<stop offset="0.5995" stop-color="#3E429A"/>
<stop offset="0.8152" stop-color="#393E97"/>
<stop offset="0.9687" stop-color="#323792"/>
<stop offset="1" stop-color="#303591"/>
</radialGradient>
<radialGradient id="paint1_radial" cx="0" cy="0" r="1" gradientUnits="userSpaceOnUse" gradientTransform="translate(182.292 245.125) scale(30.875 30.8857)">
<stop stop-color="#2B2C76"/>
<stop offset="0.6101" stop-color="#2B2C75"/>
<stop offset="0.8296" stop-color="#2A2A72"/>
<stop offset="0.9858" stop-color="#28286C"/>
<stop offset="1" stop-color="#27276B"/>
</radialGradient>
<radialGradient id="paint2_radial" cx="0" cy="0" r="1" gradientUnits="userSpaceOnUse" gradientTransform="translate(178.228 194.372) scale(35.1848 35.197)">
<stop stop-color="#3F439B"/>
<stop offset="0.5995" stop-color="#3E429A"/>
<stop offset="0.8152" stop-color="#393E97"/>
<stop offset="0.9687" stop-color="#323792"/>
<stop offset="1" stop-color="#303591"/>
</radialGradient>
<radialGradient id="paint3_radial" cx="0" cy="0" r="1" gradientUnits="userSpaceOnUse" gradientTransform="translate(219.26 239.87) scale(16.3435 16.3492)">
<stop stop-color="#3F439B"/>
<stop offset="0.5995" stop-color="#3E429A"/>
<stop offset="0.8152" stop-color="#393E97"/>
<stop offset="0.9687" stop-color="#323792"/>
<stop offset="1" stop-color="#303591"/>
</radialGradient>
<clipPath id="clip0">
<rect width="290" height="360" fill="white"/>
</clipPath>
<clipPath id="clip1">
<rect width="231" height="207" fill="white" transform="translate(29 159)"/>
</clipPath>
</defs>
</svg>
