<svg width="168" height="36" viewBox="0 0 168 34" fill="none" xmlns="http://www.w3.org/2000/svg">
<path d="M0.318726 0H5.22501V22.2653H19.0392V26.4177H0.318726V0Z" fill="#1D1E7A"/>
<path d="M21.5679 16.3409C21.5679 10.3022 26.0975 6.0387 32.2852 6.0387C38.55 6.0387 43.0426 10.3022 43.0426 16.3409C43.0426 22.3796 38.55 26.6801 32.2852 26.6801C26.0975 26.6801 21.5679 22.3765 21.5679 16.3409ZM38.2876 16.3409C38.2876 12.4911 35.7217 10.0398 32.2883 10.0398C28.8918 10.0398 26.326 12.4911 26.326 16.3409C26.326 20.1907 28.8918 22.642 32.2883 22.642C35.7217 22.642 38.2876 20.1876 38.2876 16.3409Z" fill="#1D1E7A"/>
<path d="M68.5188 6.26407V23.3582C68.5188 30.6781 64.7056 34 57.6503 34C53.8771 34 50.1411 33.0183 47.8377 31.1319L49.9527 27.5847C51.7281 29.0573 54.5935 29.9989 57.3878 29.9989C61.8402 29.9989 63.804 27.9613 63.804 23.8861V22.8303C62.1428 24.6425 59.7653 25.51 57.0482 25.51C51.2742 25.51 46.8589 21.5861 46.8589 15.7358C46.8589 9.88542 51.2742 6.0387 57.0482 6.0387C59.8795 6.0387 62.3682 6.94326 64.0293 8.94381V6.26407H68.5188ZM63.875 15.7358C63.875 12.3398 61.3091 10.0367 57.7614 10.0367C54.1766 10.0367 51.6108 12.3398 51.6108 15.7358C51.6108 19.1688 54.1766 21.509 57.7614 21.509C61.3091 21.509 63.875 19.1688 63.875 15.7358Z" fill="#1D1E7A"/>
<path d="M73.9902 16.3409C73.9902 10.3022 78.5198 6.0387 84.7074 6.0387C90.9723 6.0387 95.4648 10.3022 95.4648 16.3409C95.4648 22.3796 90.9723 26.6801 84.7074 26.6801C78.5198 26.6801 73.9902 22.3765 73.9902 16.3409ZM90.7098 16.3409C90.7098 12.4911 88.144 10.0398 84.7105 10.0398C81.3141 10.0398 78.7482 12.4911 78.7482 16.3409C78.7482 20.1907 81.3141 22.642 84.7105 22.642C88.1409 22.642 90.7098 20.1876 90.7098 16.3409Z" fill="#1D1E7A"/>
<path d="M128.938 16.3409C128.938 10.3022 133.468 6.0387 139.655 6.0387C145.92 6.0387 150.413 10.3022 150.413 16.3409C150.413 22.3796 145.92 26.6801 139.655 26.6801C133.468 26.6801 128.938 22.3765 128.938 16.3409ZM145.658 16.3409C145.658 12.4911 143.092 10.0398 139.655 10.0398C136.259 10.0398 133.693 12.4911 133.693 16.3409C133.693 20.1907 136.259 22.642 139.655 22.642C143.092 22.642 145.658 20.1876 145.658 16.3409Z" fill="#02DE84"/>
<path d="M168 25.3217C166.867 26.2263 165.169 26.6801 163.47 26.6801C159.055 26.6801 156.526 24.34 156.526 19.8881V10.188H153.204V6.41533H156.526V1.81223H161.244V6.41533H166.641V10.188H161.244V19.7739C161.244 21.7374 162.226 22.7932 164.039 22.7932C165.02 22.7932 165.962 22.5277 166.682 21.9628L168 25.3217Z" fill="#02DE84"/>
<path d="M109.199 3.84981H113.24C116.637 3.84981 118.56 5.05693 118.56 7.51131C118.56 9.92554 116.637 11.1327 113.24 11.1327H109.711V14.9423H114.222C117.921 14.9423 119.922 16.1124 119.922 18.7551C119.922 19.9715 119.493 20.8699 118.678 21.4935L122.398 24.4141C124.032 23.1915 124.865 21.441 124.865 19.246C124.865 15.8129 122.942 13.587 120.11 12.6794C122.148 11.5865 123.507 9.58594 123.507 6.86915C123.507 2.67974 120.11 0 113.768 0H104.292L109.199 3.84981Z" fill="#02DE84"/>
<path d="M114.235 22.5648C114.228 22.5648 114.225 22.5648 114.219 22.5648H106.293V16.3409V14.9424V11.1327V9.16918V6.12514L101.39 2.27841V26.4146H114.525C116.063 26.4146 117.433 26.2788 118.635 26.0164L114.235 22.5648Z" fill="#1D1E7A"/>
</svg>
