<svg xmlns="http://www.w3.org/2000/svg" width="40" height="40" viewBox="0 0 40 40" fill="none">
    <rect width="40" height="40" fill="white"/>
    <path d="M19.613 38.7714C19.3923 38.7714 19.1691 38.7109 18.9691 38.5839C16.7455 37.1729 5.7825 27.5257 2.34039 21.7069C0.721719 18.9711 0 16.3281 0 13.1371C0 9.50598 1.22703 6.42645 3.54844 4.23137C5.6743 2.22121 8.58805 1.11426 11.7532 1.11426C16.1791 1.11426 18.6733 3.11605 20.0105 4.87652C21.3445 3.11598 23.8336 1.11426 28.2548 1.11426C31.4195 1.11426 34.3321 2.22137 36.456 4.23184C38.7745 6.42645 40 9.5059 40 13.1373C40 16.3236 39.277 18.9667 37.6557 21.7071C36.052 24.4181 32.8706 27.8395 30.4841 30.2324C30.0148 30.7033 29.2523 30.7043 28.7816 30.2348C28.3108 29.7653 28.3098 29.003 28.7794 28.5321C32.062 25.2406 34.4149 22.4566 35.5835 20.4811C36.9916 18.1011 37.5923 15.9048 37.5923 13.1373C37.5923 6.4952 32.9026 3.52223 28.2548 3.52223C23.9707 3.52223 22.0778 5.86762 21.3308 7.26582C21.0706 7.75246 20.5657 8.05488 20.0127 8.05519C20.0123 8.05519 20.012 8.05519 20.0116 8.05519C19.4591 8.05519 18.9543 7.75363 18.6938 7.26785C17.9438 5.86895 16.0446 3.5223 11.7532 3.5223C7.10148 3.52207 2.40781 6.49512 2.40781 13.1371C2.40781 15.9093 3.00734 18.1057 4.41266 20.481C7.61852 25.9001 18.205 35.2474 20.2592 36.5508C20.8206 36.9071 20.987 37.6509 20.6307 38.2123C20.4013 38.5737 20.0114 38.7714 19.613 38.7714Z" fill="#1D1E7A"/>
    <path d="M11.7532 2.31738C16.6766 2.31738 18.8855 5.07691 19.7546 6.69785C19.8069 6.79559 19.9026 6.84512 20 6.84879V37.6817C19.866 37.6795 19.7325 37.6416 19.614 37.5664C17.4058 36.1654 6.66245 26.6478 3.37644 21.0932C1.77628 18.3886 1.20386 15.9652 1.20386 13.1364C1.20386 6.14574 6.14511 2.31738 11.7532 2.31738Z" fill="#02DE84"/>
    <path d="M19.9999 38.8864C19.9935 38.8864 19.9873 38.8864 19.9809 38.8862C19.6217 38.8804 19.2717 38.776 18.9691 38.5838C16.7455 37.1729 5.7825 27.5256 2.34023 21.7068C0.721719 18.9711 0 16.3281 0 13.1371C0 9.50598 1.22703 6.42645 3.54844 4.23137C5.6743 2.22121 8.58805 1.11426 11.7532 1.11426C17.0189 1.11426 19.5503 3.94785 20.6521 5.83738C20.9848 6.05207 21.2038 6.42605 21.2038 6.84949V37.6824C21.2038 38.005 21.0743 38.3141 20.8445 38.5404C20.6191 38.7624 20.3157 38.8864 19.9999 38.8864ZM11.7532 3.52207C7.10148 3.52207 2.40781 6.49504 2.40781 13.1371C2.40781 15.9093 3.00734 18.1057 4.41266 20.481C7.13344 25.08 15.1707 32.509 18.7962 35.4484V7.43168C18.7588 7.37965 18.7246 7.32504 18.6941 7.26809C17.9436 5.86871 16.0445 3.52207 11.7532 3.52207Z" fill="#1D1E7A"/>
</svg>