<svg xmlns="http://www.w3.org/2000/svg" width="40" height="40" viewBox="0 0 40 40" fill="none">
    <g clip-path="url(#clip0)">
        <rect width="40" height="40" fill="white"/>
        <path d="M33.3369 35.8073H6.66327C5.30124 35.8073 4.19312 34.6992 4.19312 33.3372V6.66352C4.19312 5.30148 5.30124 4.19336 6.66327 4.19336H33.3369C34.6989 4.19336 35.807 5.30148 35.807 6.66352V33.3371C35.807 34.6991 34.6989 35.8073 33.3369 35.8073ZM6.66327 6.45625C6.54897 6.45625 6.45601 6.54922 6.45601 6.66352V33.3371C6.45601 33.4514 6.54897 33.5444 6.66327 33.5444H33.3369C33.4512 33.5444 33.5441 33.4514 33.5441 33.3371V6.66352C33.5441 6.54922 33.4512 6.45625 33.3369 6.45625H6.66327Z" fill="#1D1E7A"/>
        <path d="M26.658 29.2345H13.342C11.9214 29.2345 10.7656 28.0788 10.7656 26.6581V13.342C10.7656 11.9213 11.9214 10.7656 13.342 10.7656H26.658C28.0787 10.7656 29.2344 11.9214 29.2344 13.342V26.6581C29.2344 28.0788 28.0787 29.2345 26.658 29.2345ZM13.342 13.0284C13.1691 13.0284 13.0285 13.169 13.0285 13.3419V26.6579C13.0285 26.8308 13.1691 26.9714 13.342 26.9714H26.658C26.8309 26.9714 26.9716 26.8308 26.9716 26.6579V13.342C26.9716 13.1691 26.8309 13.0285 26.658 13.0285H13.342V13.0284Z" fill="#1D1E7A"/>
        <path d="M37.4809 10.0413H31.8699C31.1036 10.0413 30.4824 9.42012 30.4824 8.65379V3.04277C30.4824 2.27645 31.1036 1.65527 31.8699 1.65527H37.4809C38.2473 1.65527 38.8684 2.27645 38.8684 3.04277V8.65379C38.8684 9.41996 38.2473 10.0413 37.4809 10.0413Z" fill="#02DE84"/>
        <path d="M37.4811 11.1733H31.8701C30.4811 11.1733 29.3511 10.0433 29.3511 8.65426V3.0434C29.3511 1.65457 30.4811 0.524414 31.8701 0.524414H37.4811C38.8701 0.524414 40.0001 1.65441 40.0001 3.0434V8.65441C40.0001 10.0433 38.8701 11.1733 37.4811 11.1733ZM31.8701 2.7873C31.729 2.7873 31.6141 2.90215 31.6141 3.04332V8.65434C31.6141 8.79551 31.729 8.91051 31.8701 8.91051H37.4812C37.6223 8.91051 37.7372 8.79559 37.7372 8.65434V3.0434C37.7372 2.90223 37.6223 2.78738 37.4812 2.78738L31.8701 2.7873Z" fill="#1D1E7A"/>
        <path d="M8.12991 10.0413H2.51897C1.75272 10.0413 1.13147 9.42004 1.13147 8.65371V3.04277C1.13147 2.27645 1.75264 1.65527 2.51897 1.65527H8.12999C8.89631 1.65527 9.51749 2.27645 9.51749 3.04277V8.65379C9.51749 9.41996 8.89631 10.0413 8.12991 10.0413Z" fill="#02DE84"/>
        <path d="M8.12992 11.1733H2.51898C1.13 11.1733 0 10.0433 0 8.65426V3.0434C0 1.65441 1.13 0.524414 2.51898 0.524414H8.13C9.51898 0.524414 10.649 1.65441 10.649 3.0434V8.65441C10.6489 10.0433 9.51891 11.1733 8.12992 11.1733ZM2.51898 2.7873C2.37781 2.7873 2.26297 2.90215 2.26297 3.04332V8.65434C2.26297 8.79551 2.37781 8.91051 2.51898 8.91051H8.13C8.27117 8.91051 8.38602 8.79559 8.38602 8.65434V3.0434C8.38602 2.90223 8.27117 2.78738 8.13 2.78738L2.51898 2.7873Z" fill="#1D1E7A"/>
        <path d="M37.4809 38.345H31.8699C31.1036 38.345 30.4824 37.7238 30.4824 36.9575V31.3465C30.4824 30.5802 31.1036 29.959 31.8699 29.959H37.4809C38.2473 29.959 38.8684 30.5802 38.8684 31.3465V36.9575C38.8684 37.7238 38.2473 38.345 37.4809 38.345Z" fill="#02DE84"/>
        <path d="M37.4811 39.4752H31.8701C30.4811 39.4752 29.3511 38.3452 29.3511 36.9562V31.3452C29.3511 29.9562 30.4811 28.8262 31.8701 28.8262H37.4811C38.8701 28.8262 40.0001 29.9562 40.0001 31.3452V36.9562C40.0001 38.3452 38.8701 39.4752 37.4811 39.4752ZM31.8701 31.0891C31.729 31.0891 31.6141 31.2041 31.6141 31.3453V36.9563C31.6141 37.0975 31.729 37.2123 31.8701 37.2123H37.4812C37.6223 37.2123 37.7372 37.0975 37.7372 36.9563V31.3453C37.7372 31.2041 37.6223 31.0891 37.4812 31.0891H31.8701Z" fill="#1D1E7A"/>
        <path d="M8.12991 38.345H2.51897C1.75264 38.345 1.13147 37.7238 1.13147 36.9575V31.3465C1.13147 30.5802 1.75264 29.959 2.51897 29.959H8.12999C8.89631 29.959 9.51749 30.5802 9.51749 31.3465V36.9575C9.51749 37.7238 8.89631 38.345 8.12991 38.345Z" fill="#02DE84"/>
        <path d="M8.12992 39.4752H2.51898C1.13 39.4752 0 38.3452 0 36.9562V31.3452C0 29.9562 1.13 28.8262 2.51898 28.8262H8.13C9.51898 28.8262 10.649 29.9562 10.649 31.3452V36.9562C10.6489 38.3452 9.51891 39.4752 8.12992 39.4752ZM2.51898 31.0891C2.37781 31.0891 2.26297 31.2041 2.26297 31.3453V36.9563C2.26297 37.0975 2.37781 37.2123 2.51898 37.2123H8.13C8.27117 37.2123 8.38602 37.0975 8.38602 36.9563V31.3453C8.38602 31.2041 8.27117 31.0891 8.13 31.0891H2.51898Z" fill="#1D1E7A"/>
    </g>
    <defs>
        <clipPath id="clip0">
            <rect width="40" height="40" fill="white"/>
        </clipPath>
    </defs>
</svg>