<svg xmlns="http://www.w3.org/2000/svg" width="40" height="40" viewBox="0 0 40 40" fill="none">
    <g clip-path="url(#clip0)">
        <rect width="40" height="40" fill="white"/>
        <path d="M17.1389 18.4049H2.48375C1.11414 18.4049 0 17.2907 0 15.9212V2.5609C0 1.19137 1.11414 0.0771484 2.48375 0.0771484H15.8442C17.2138 0.0771484 18.328 1.19129 18.328 2.5609V11.6375C18.328 12.2941 17.7957 12.8264 17.139 12.8264C16.4823 12.8264 15.95 12.2942 15.95 11.6375V2.5609C15.95 2.50254 15.9026 2.45512 15.8442 2.45512H2.48375C2.42539 2.45512 2.37797 2.50254 2.37797 2.5609V15.9214C2.37797 15.9797 2.42539 16.0271 2.48375 16.0271H17.139C17.7956 16.0271 18.328 16.5594 18.328 17.2161C18.3279 17.8728 17.7955 18.4049 17.1389 18.4049Z" fill="#1D1E7A"/>
        <path d="M12.3828 6.02246H5.9447V12.4606H12.3828V6.02246Z" fill="#02DE84"/>
        <path d="M12.3831 13.6493H5.94472C5.28808 13.6493 4.75574 13.117 4.75574 12.4603V6.02199C4.75574 5.36535 5.288 4.83301 5.94472 4.83301H12.3831C13.0397 4.83301 13.5721 5.36527 13.5721 6.02199V12.4603C13.5721 13.117 13.0397 13.6493 12.3831 13.6493ZM7.13363 11.2714H11.1941V7.21098H7.13363V11.2714Z" fill="#1D1E7A"/>
        <path d="M37.5162 17.2164H24.1558C23.4408 17.2164 22.8611 16.6367 22.8611 15.9217V2.56137C22.8611 1.84637 23.4408 1.2666 24.1558 1.2666H37.5163C38.2313 1.2666 38.8111 1.84637 38.8111 2.56137V15.9218C38.811 16.6368 38.2313 17.2164 37.5162 17.2164Z" fill="#02DE84"/>
        <path d="M37.5163 18.4049H24.1559C22.7863 18.4049 21.6721 17.2907 21.6721 15.9211V2.5609C21.6721 1.19137 22.7863 0.0771484 24.1559 0.0771484H37.5163C38.8859 0.0771484 40.0001 1.19129 40.0001 2.5609V15.9214C40 17.2907 38.8859 18.4049 37.5163 18.4049ZM24.1559 2.45504C24.0975 2.45504 24.0501 2.50246 24.0501 2.56082V15.9213C24.0501 15.9796 24.0975 16.0271 24.1559 16.0271H37.5163C37.5747 16.0271 37.6221 15.9796 37.6221 15.9213V2.5609C37.6221 2.50254 37.5747 2.45512 37.5163 2.45512H24.1559V2.45504Z" fill="#1D1E7A"/>
        <path d="M15.8441 38.7341H2.48373C1.76873 38.7341 1.18896 38.1543 1.18896 37.4393V24.0789C1.18896 23.3639 1.76873 22.7842 2.48373 22.7842H15.8442C16.5592 22.7842 17.139 23.3639 17.139 24.0789V37.4394C17.1389 38.1544 16.5592 38.7341 15.8441 38.7341Z" fill="#02DE84"/>
        <path d="M15.8441 39.9226H2.48375C1.11414 39.9226 0 38.8084 0 37.4389V24.0785C0 22.7089 1.11414 21.5947 2.48375 21.5947H15.8442C17.2138 21.5947 18.328 22.7089 18.328 24.0785V37.4389C18.3279 38.8084 17.2137 39.9226 15.8441 39.9226ZM2.48375 23.9726C2.42539 23.9726 2.37797 24.02 2.37797 24.0784V37.4389C2.37797 37.4972 2.42539 37.5447 2.48375 37.5447H15.8442C15.9026 37.5447 15.95 37.4972 15.95 37.4389V24.0785C15.95 24.0201 15.9026 23.9727 15.8442 23.9727H2.48375V23.9726Z" fill="#1D1E7A"/>
        <path d="M38.811 39.9226H24.1559C22.7863 39.9226 21.6721 38.8085 21.6721 37.4389V24.0785C21.6721 22.7089 22.7863 21.5947 24.1559 21.5947H37.5163C38.8859 21.5947 40.0001 22.7089 40.0001 24.0785V33.1182C40.0001 33.7748 39.4678 34.3071 38.8111 34.3071C38.1545 34.3071 37.6221 33.7749 37.6221 33.1182V24.0785C37.6221 24.0201 37.5747 23.9727 37.5163 23.9727H24.1559C24.0975 23.9727 24.0501 24.0201 24.0501 24.0785V37.4389C24.0501 37.4973 24.0975 37.5447 24.1559 37.5447H38.8111C39.4677 37.5447 40.0001 38.077 40.0001 38.7337C40.0001 39.3904 39.4677 39.9226 38.811 39.9226Z" fill="#1D1E7A"/>
        <path d="M34.0549 27.54H27.6168V33.9782H34.0549V27.54Z" fill="#02DE84"/>
        <path d="M34.0552 35.1668H27.6168C26.9602 35.1668 26.4279 34.6346 26.4279 33.9779V27.5396C26.4279 26.8829 26.9601 26.3506 27.6168 26.3506H34.0552C34.7118 26.3506 35.2442 26.8829 35.2442 27.5396V33.9779C35.2442 34.6345 34.7119 35.1668 34.0552 35.1668ZM28.8058 32.7889H32.8663V28.7286H28.8058V32.7889Z" fill="#1D1E7A"/>
    </g>
    <defs>
        <clipPath id="clip0">
            <rect width="40" height="40" fill="white"/>
        </clipPath>
    </defs>
</svg>