<svg width="40" height="40" viewBox="0 0 40 40" fill="none" xmlns="http://www.w3.org/2000/svg">
<g clip-path="url(#clip0)">
<path d="M17.1389 18.4049H2.48375C1.11414 18.4049 0 17.2907 0 15.9212V2.5609C0 1.19137 1.11414 0.0771484 2.48375 0.0771484H15.8442C17.2138 0.0771484 18.328 1.19129 18.328 2.5609V11.6375C18.328 12.2941 17.7957 12.8264 17.139 12.8264C16.4823 12.8264 15.95 12.2942 15.95 11.6375V2.5609C15.95 2.50254 15.9026 2.45512 15.8442 2.45512H2.48375C2.42539 2.45512 2.37797 2.50254 2.37797 2.5609V15.9214C2.37797 15.9797 2.42539 16.0271 2.48375 16.0271H17.139C17.7956 16.0271 18.328 16.5594 18.328 17.2161C18.3279 17.8728 17.7955 18.4049 17.1389 18.4049Z" fill="#02DE84"/>
<path d="M12.3829 6.02246H5.94482V12.4606H12.3829V6.02246Z" fill="#1D1E7A"/>
<path d="M12.3832 13.6493H5.94484C5.2882 13.6493 4.75586 13.117 4.75586 12.4603V6.02199C4.75586 5.36535 5.28813 4.83301 5.94484 4.83301H12.3832C13.0399 4.83301 13.5722 5.36527 13.5722 6.02199V12.4603C13.5722 13.117 13.0399 13.6493 12.3832 13.6493ZM7.13375 11.2714H11.1942V7.21098H7.13375V11.2714Z" fill="#02DE84"/>
<path d="M37.516 17.2164H24.1556C23.4406 17.2164 22.8608 16.6367 22.8608 15.9217V2.56137C22.8608 1.84637 23.4406 1.2666 24.1556 1.2666H37.5161C38.2311 1.2666 38.8108 1.84637 38.8108 2.56137V15.9218C38.8108 16.6368 38.2311 17.2164 37.516 17.2164Z" fill="#1D1E7A"/>
<path d="M37.516 18.4049H24.1556C22.7861 18.4049 21.6719 17.2907 21.6719 15.9211V2.5609C21.6719 1.19137 22.786 0.0771484 24.1556 0.0771484H37.5161C38.8856 0.0771484 39.9998 1.19129 39.9998 2.5609V15.9214C39.9998 17.2907 38.8856 18.4049 37.516 18.4049ZM24.1556 2.45504C24.0973 2.45504 24.0498 2.50246 24.0498 2.56082V15.9213C24.0498 15.9796 24.0973 16.0271 24.1556 16.0271H37.5161C37.5744 16.0271 37.6219 15.9796 37.6219 15.9213V2.5609C37.6219 2.50254 37.5744 2.45512 37.5161 2.45512H24.1556V2.45504Z" fill="#02DE84"/>
<path d="M15.8441 38.7341H2.48373C1.76873 38.7341 1.18896 38.1543 1.18896 37.4393V24.0789C1.18896 23.3639 1.76873 22.7842 2.48373 22.7842H15.8442C16.5592 22.7842 17.139 23.3639 17.139 24.0789V37.4394C17.1389 38.1544 16.5592 38.7341 15.8441 38.7341Z" fill="#1D1E7A"/>
<path d="M15.8441 39.9226H2.48375C1.11414 39.9226 0 38.8084 0 37.4389V24.0785C0 22.7089 1.11414 21.5947 2.48375 21.5947H15.8442C17.2138 21.5947 18.328 22.7089 18.328 24.0785V37.4389C18.3279 38.8084 17.2137 39.9226 15.8441 39.9226ZM2.48375 23.9726C2.42539 23.9726 2.37797 24.02 2.37797 24.0784V37.4389C2.37797 37.4972 2.42539 37.5447 2.48375 37.5447H15.8442C15.9026 37.5447 15.95 37.4972 15.95 37.4389V24.0785C15.95 24.0201 15.9026 23.9727 15.8442 23.9727H2.48375V23.9726Z" fill="#02DE84"/>
<path d="M38.8108 39.9226H24.1556C22.7861 39.9226 21.6719 38.8085 21.6719 37.4389V24.0785C21.6719 22.7089 22.786 21.5947 24.1556 21.5947H37.5161C38.8856 21.5947 39.9998 22.7089 39.9998 24.0785V33.1182C39.9998 33.7748 39.4676 34.3071 38.8109 34.3071C38.1542 34.3071 37.6219 33.7749 37.6219 33.1182V24.0785C37.6219 24.0201 37.5744 23.9727 37.5161 23.9727H24.1556C24.0973 23.9727 24.0498 24.0201 24.0498 24.0785V37.4389C24.0498 37.4973 24.0973 37.5447 24.1556 37.5447H38.8109C39.4675 37.5447 39.9998 38.077 39.9998 38.7337C39.9998 39.3904 39.4675 39.9226 38.8108 39.9226Z" fill="#02DE84"/>
<path d="M34.0548 27.54H27.6167V33.9782H34.0548V27.54Z" fill="#1D1E7A"/>
<path d="M34.0551 35.1668H27.6167C26.9601 35.1668 26.4277 34.6346 26.4277 33.9779V27.5396C26.4277 26.8829 26.96 26.3506 27.6167 26.3506H34.0551C34.7117 26.3506 35.2441 26.8829 35.2441 27.5396V33.9779C35.2441 34.6345 34.7118 35.1668 34.0551 35.1668ZM28.8057 32.7889H32.8662V28.7286H28.8057V32.7889Z" fill="#02DE84"/>
</g>
<defs>
<clipPath id="clip0">
<rect width="40" height="40" fill="white"/>
</clipPath>
</defs>
</svg>
